<?xml version="1.0" encoding="UTF-8"?>
<svg width="24px" height="18px" viewBox="0 0 24 18" version="1.1" xmlns="http://www.w3.org/2000/svg" xmlns:xlink="http://www.w3.org/1999/xlink">
    <!-- Generator: Sketch 61 (89581) - https://sketch.com -->
    <title>delivery-grey-category-icon</title>
    <desc>Created with Sketch.</desc>
    <g id="Page-1" stroke="none" stroke-width="1" fill="none" fill-rule="evenodd">
        <g id="delivery-grey-category-icon" fill="#777777">
            <path d="M21.0400375,14.5404878 C20.7707692,13.2554221 19.6298311,12.287955 18.2657974,12.287955 C16.898743,12.287955 15.7547842,13.2606004 15.4893996,14.5504128 L14.4805066,14.5693996 L14.480075,14.5059662 C14.480075,14.5051032 14.4805066,14.5046717 14.4805066,14.5038086 L14.4805066,5.18772983 L18.2066792,5.18772983 C18.596773,5.18772983 18.9635647,5.35990619 19.2142777,5.65894934 L19.3907692,5.86953096 L16.8668105,5.86953096 C16.3230957,5.86953096 15.8812195,6.31183865 15.8812195,6.85469043 L15.8812195,10.0052158 C15.8812195,10.5484991 16.3230957,10.9903752 16.8668105,10.9903752 L22.0618762,10.9903752 L22.0804315,14.5404878 L21.0400375,14.5404878 Z M18.2657974,16.7930206 C17.3449343,16.7930206 16.5958161,16.0434709 16.5958161,15.1230394 C16.5958161,14.2021764 17.3449343,13.4526266 18.2657974,13.4526266 C19.1866604,13.4526266 19.9357786,14.2021764 19.9357786,15.1230394 C19.9357786,16.0434709 19.1866604,16.7930206 18.2657974,16.7930206 L18.2657974,16.7930206 Z M13.2705253,14.5404878 L8.40082552,14.5404878 C8.13155722,13.2554221 6.99018762,12.287955 5.62658537,12.287955 C4.26341463,12.287955 3.12247655,13.2554221 2.85320826,14.5404878 L1.78433396,14.5404878 C1.75714822,14.5404878 1.73859287,14.5215009 1.73859287,14.5038086 L1.73859287,9.10333959 C2.66463415,9.93530957 3.8836773,10.4466604 5.22354597,10.4466604 C8.10350844,10.4466604 10.4466604,8.10350844 10.4466604,5.22311445 C10.4466604,4.48435272 10.2904503,3.78183865 10.0125516,3.14448405 L13.2705253,3.14448405 C13.2977111,3.14448405 13.3158349,3.16347092 13.3158349,3.18073171 L13.3158349,5.15881801 L13.3158349,14.5038086 C13.3158349,14.5215009 13.2977111,14.5404878 13.2705253,14.5404878 L13.2705253,14.5404878 Z M5.62658537,16.7930206 C4.70615385,16.7930206 3.95703565,16.0434709 3.95703565,15.1230394 C3.95703565,14.2021764 4.70615385,13.4526266 5.62658537,13.4526266 C6.54744841,13.4526266 7.2965666,14.2021764 7.2965666,15.1230394 C7.2965666,16.0434709 6.54744841,16.7930206 5.62658537,16.7930206 L5.62658537,16.7930206 Z M5.22354597,1.16467167 C7.46097561,1.16467167 9.28198874,2.9856848 9.28198874,5.22311445 C9.28198874,7.46097561 7.46097561,9.28155722 5.22354597,9.28155722 C2.9856848,9.28155722 1.16467167,7.46097561 1.16467167,5.22311445 C1.16467167,2.9856848 2.9856848,1.16467167 5.22354597,1.16467167 L5.22354597,1.16467167 Z M22.0558349,9.82570356 L17.0458912,9.82570356 L17.0458912,7.03420263 L20.3672983,7.03420263 L22.0515197,9.04335835 L22.0558349,9.82570356 Z M22.9521013,8.3149531 L20.1083865,4.91198874 C19.6358724,4.34712946 18.9428518,4.02305816 18.2066792,4.02305816 L14.4805066,4.02305816 L14.4805066,3.18073171 C14.4805066,2.51834897 13.9376548,1.97981238 13.2705253,1.97981238 L9.31003752,1.97981238 C8.35249531,0.77587242 6.8779925,1.59872116e-14 5.22354597,1.59872116e-14 C2.34315197,1.59872116e-14 -1.0658141e-14,2.34272045 -1.0658141e-14,5.22311445 C-1.0658141e-14,6.07666041 0.209718574,6.88015009 0.573921201,7.59172608 L0.573921201,14.5038086 C0.573921201,15.1661914 1.11677298,15.7051595 1.78433396,15.7051595 L2.85320826,15.7051595 C3.12247655,16.9902251 4.26341463,17.9576923 5.62658537,17.9576923 C6.99018762,17.9576923 8.13155722,16.9902251 8.40082552,15.7051595 L13.2705253,15.7051595 C13.4901689,15.7051595 13.6934146,15.6425891 13.8712008,15.5403189 C14.041651,15.6430206 14.238424,15.7051595 14.4511632,15.7051595 L15.4919887,15.7051595 C15.761257,16.9902251 16.9021951,17.9576923 18.2657974,17.9576923 C19.6298311,17.9576923 20.7707692,16.9902251 21.0400375,15.7051595 L22.0804315,15.7051595 C22.7065666,15.7051595 23.2161914,15.1959662 23.2161914,14.5693996 L23.2161914,9.04335835 C23.2161914,8.77711069 23.1221201,8.51776735 22.9521013,8.3149531 L22.9521013,8.3149531 Z" id="Fill-11"></path>
            <path d="M3.67175797,6.80812946 C3.78869981,6.80812946 3.90607317,6.77317636 4.00791182,6.70068105 L5.80562289,5.4268349 L5.80562289,2.28105629 C5.80562289,1.95957411 5.54498499,1.69850469 5.22350281,1.69850469 C4.90202064,1.69850469 4.64095122,1.95957411 4.64095122,2.28105629 L4.64095122,4.82400188 L3.33474109,5.75004315 C3.07194559,5.93602814 3.01023827,6.29936773 3.19579174,6.56216323 C3.30971295,6.72268856 3.48922514,6.80812946 3.67175797,6.80812946" id="Fill-13"></path>
        </g>
    </g>
</svg>