<?xml version="1.0" encoding="UTF-8"?>
<svg width="31px" height="24px" viewBox="0 0 31 24" version="1.1" xmlns="http://www.w3.org/2000/svg" xmlns:xlink="http://www.w3.org/1999/xlink">
    <!-- Generator: Sketch 61 (89581) - https://sketch.com -->
    <title>delivery-grey-pdp-icon</title>
    <desc>Created with Sketch.</desc>
    <g id="Page-1" stroke="none" stroke-width="1" fill="none" fill-rule="evenodd">
        <g id="Dismac-landing-categoria-2-Copy" transform="translate(-1084.000000, -703.000000)" fill="#777777">
            <g id="delivery-grey-pdp-icon" transform="translate(1084.000000, 703.000000)">
                <path d="M28.0533834,19.3873171 C27.694359,17.6738962 26.1731082,16.38394 24.3543965,16.38394 C22.5316573,16.38394 21.006379,17.6808005 20.6525328,19.4005503 L19.3073421,19.4258662 L19.3067667,19.3412883 C19.3067667,19.3401376 19.3073421,19.3395622 19.3073421,19.3384115 L19.3073421,6.91697311 L24.2755722,6.91697311 C24.7956973,6.91697311 25.284753,7.14654159 25.6190369,7.54526579 L25.854359,7.82604128 L22.4890807,7.82604128 C21.7641276,7.82604128 21.1749593,8.41578487 21.1749593,9.13958724 L21.1749593,13.3402877 C21.1749593,14.0646654 21.7641276,14.6538336 22.4890807,14.6538336 L29.4158349,14.6538336 L29.4405754,19.3873171 L28.0533834,19.3873171 Z M24.3543965,22.3906942 C23.1265791,22.3906942 22.1277548,21.3912946 22.1277548,20.1640525 C22.1277548,18.9362351 23.1265791,17.9368355 24.3543965,17.9368355 C25.5822139,17.9368355 26.5810381,18.9362351 26.5810381,20.1640525 C26.5810381,21.3912946 25.5822139,22.3906942 24.3543965,22.3906942 L24.3543965,22.3906942 Z M17.6940338,19.3873171 L11.2011007,19.3873171 C10.8420763,17.6738962 9.32025016,16.38394 7.50211382,16.38394 C5.68455285,16.38394 4.16330206,17.6738962 3.80427767,19.3873171 L2.37911194,19.3873171 C2.34286429,19.3873171 2.31812383,19.3620013 2.31812383,19.3384115 L2.31812383,12.1377861 C3.55284553,13.2470794 5.1782364,13.9288806 6.96472795,13.9288806 C10.8046779,13.9288806 13.9288806,10.8046779 13.9288806,6.9641526 C13.9288806,5.97913696 13.7206004,5.04245153 13.3500688,4.1926454 L17.6940338,4.1926454 C17.7302814,4.1926454 17.7544465,4.21796123 17.7544465,4.24097561 L17.7544465,6.87842402 L17.7544465,19.3384115 C17.7544465,19.3620013 17.7302814,19.3873171 17.6940338,19.3873171 L17.6940338,19.3873171 Z M7.50211382,22.3906942 C6.27487179,22.3906942 5.27604753,21.3912946 5.27604753,20.1640525 C5.27604753,18.9362351 6.27487179,17.9368355 7.50211382,17.9368355 C8.72993121,17.9368355 9.72875547,18.9362351 9.72875547,20.1640525 C9.72875547,21.3912946 8.72993121,22.3906942 7.50211382,22.3906942 L7.50211382,22.3906942 Z M6.96472795,1.55289556 C9.94796748,1.55289556 12.375985,3.98091307 12.375985,6.9641526 C12.375985,9.94796748 9.94796748,12.3754096 6.96472795,12.3754096 C3.98091307,12.3754096 1.55289556,9.94796748 1.55289556,6.9641526 C1.55289556,3.98091307 3.98091307,1.55289556 6.96472795,1.55289556 L6.96472795,1.55289556 Z M29.4077799,13.1009381 L22.7278549,13.1009381 L22.7278549,9.37893684 L27.1563977,9.37893684 L29.4020263,12.0578111 L29.4077799,13.1009381 Z M30.6028018,11.0866041 L26.811182,6.54931832 C26.1811632,5.79617261 25.2571357,5.36407755 24.2755722,5.36407755 L19.3073421,5.36407755 L19.3073421,4.24097561 C19.3073421,3.35779862 18.5835397,2.63974984 17.6940338,2.63974984 L12.4133834,2.63974984 C11.1366604,1.03449656 9.17065666,2.13162821e-14 6.96472795,2.13162821e-14 C3.12420263,2.13162821e-14 -1.42108547e-14,3.12362727 -1.42108547e-14,6.9641526 C-1.42108547e-14,8.10221388 0.279624765,9.17353346 0.765228268,10.1223014 L0.765228268,19.3384115 C0.765228268,20.2215885 1.48903064,20.9402126 2.37911194,20.9402126 L3.80427767,20.9402126 C4.16330206,22.6536335 5.68455285,23.9435897 7.50211382,23.9435897 C9.32025016,23.9435897 10.8420763,22.6536335 11.2011007,20.9402126 L17.6940338,20.9402126 C17.9868918,20.9402126 18.2578862,20.8567855 18.4949343,20.7204253 C18.7222014,20.8573609 18.9845654,20.9402126 19.2682176,20.9402126 L20.655985,20.9402126 C21.0150094,22.6536335 22.5362602,23.9435897 24.3543965,23.9435897 C26.1731082,23.9435897 27.694359,22.6536335 28.0533834,20.9402126 L29.4405754,20.9402126 C30.2754221,20.9402126 30.9549218,20.2612883 30.9549218,19.4258662 L30.9549218,12.0578111 C30.9549218,11.7028143 30.8294934,11.3570231 30.6028018,11.0866041 L30.6028018,11.0866041 Z" id="Fill-11"></path>
                <path d="M4.8956773,9.07750594 C5.05159975,9.07750594 5.20809756,9.03090181 5.34388243,8.9342414 L7.74083052,7.23577986 L7.74083052,3.04140838 C7.74083052,2.61276548 7.39331332,2.26467292 6.96467042,2.26467292 C6.53602752,2.26467292 6.18793496,2.61276548 6.18793496,3.04140838 L6.18793496,6.4320025 L4.44632145,7.6667242 C4.09592745,7.91470419 4.01365103,8.39915697 4.26105566,8.74955097 C4.41295059,8.96358474 4.65230019,9.07750594 4.8956773,9.07750594" id="Fill-13"></path>
            </g>
        </g>
    </g>
</svg>