<?xml version="1.0" encoding="UTF-8"?>
<svg width="21px" height="18px" viewBox="0 0 21 18" version="1.1" xmlns="http://www.w3.org/2000/svg" xmlns:xlink="http://www.w3.org/1999/xlink">
    <!-- Generator: Sketch 61 (89581) - https://sketch.com -->
    <title>store-green-category-icon</title>
    <desc>Created with Sketch.</desc>
    <defs>
        <polygon id="path-1" points="0 0.0548461538 20.3825646 0.0548461538 20.3825646 17.6936877 0 17.6936877"></polygon>
    </defs>
    <g id="Page-1" stroke="none" stroke-width="1" fill="none" fill-rule="evenodd">
        <g id="store-green-category-icon">
            <mask id="mask-2" fill="white">
                <use xlink:href="#path-1"></use>
            </mask>
            <g id="Clip-5"></g>
            <path d="M10.8488877,9.65854923 L9.40873385,9.65854923 C8.47564154,9.65854923 7.71239538,10.4179031 7.71239538,11.3548877 L7.71239538,16.7032723 L5.06031846,16.7032723 C5.05713385,16.7032723 5.05465692,16.7025646 5.05182615,16.7025646 L2.77376462,16.7025646 L2.77376462,8.72581077 C2.83144154,8.73005692 2.88911846,8.73005692 2.94679538,8.73005692 C3.94570308,8.73005692 4.82890308,8.22228769 5.34905692,7.45054923 C5.86885692,8.22228769 6.75205692,8.73005692 7.75096462,8.73005692 C8.74951846,8.73005692 9.62882615,8.22228769 10.1528723,7.45054923 C10.6730262,8.22228769 11.5562262,8.73005692 12.5508877,8.73005692 C13.5494415,8.73005692 14.4287492,8.22228769 14.9485492,7.45054923 C15.4687031,8.22228769 16.3519031,8.73005692 17.3508108,8.73005692 C17.4084877,8.73005692 17.4619185,8.72581077 17.5199492,8.72581077 L17.5199492,16.69938 L12.5452262,16.69938 L12.5452262,11.3548877 C12.5452262,10.4217954 11.7855185,9.65854923 10.8488877,9.65854923 L10.8488877,9.65854923 Z M11.5587031,16.69938 L11.5548108,16.69938 L8.70705692,16.69938 L8.70705692,11.3548877 C8.70705692,10.9667185 9.02056462,10.6489646 9.41262615,10.6489646 L10.8531338,10.6489646 C11.2409492,10.6489646 11.5587031,10.9628262 11.5587031,11.3548877 L11.5587031,16.69938 Z M1.07353385,6.16714923 L4.82501077,6.16714923 C4.66790308,7.05813385 3.88378,7.73504154 2.94679538,7.73504154 C2.01016462,7.73928769 1.22993385,7.05813385 1.07353385,6.16714923 L1.07353385,6.16714923 Z M9.62458,6.16714923 C9.46782615,7.05813385 8.68794923,7.73504154 7.75096462,7.73504154 C6.81398,7.73504154 6.03410308,7.05813385 5.87310308,6.16714923 L9.62458,6.16714923 Z M14.4245031,6.16714923 C14.2677492,7.05813385 13.4878723,7.73504154 12.5508877,7.73504154 C11.6139031,7.73504154 10.8340262,7.05813385 10.6772723,6.16714923 L14.4245031,6.16714923 Z M3.83424154,1.04947231 L16.4591185,1.04947231 L18.8075954,5.18062615 L1.49001077,5.18062615 L3.83424154,1.04947231 Z M17.3508108,7.73928769 C16.4138262,7.73928769 15.6335954,7.06238 15.4768415,6.17139538 L19.2286723,6.17139538 C19.0676723,7.05813385 18.2874415,7.73928769 17.3508108,7.73928769 L17.3508108,7.73928769 Z M19.88718,16.7025646 L18.5103646,16.7025646 L18.5103646,8.54428769 C18.5103646,8.52341077 18.5103646,8.50713385 18.5061185,8.49050308 C19.5297954,8.04076462 20.2477492,7.02133385 20.2477492,5.83241077 C20.2477492,5.74571846 20.2272262,5.66362615 20.18158,5.58931846 L17.1774262,0.306395385 C17.0907338,0.153887692 16.9254877,0.0544569231 16.7478569,0.0544569231 L3.54550308,0.0544569231 C3.36787231,0.0544569231 3.20298,0.149641538 3.11628769,0.306395385 L0.115672308,5.58931846 C0.0746261538,5.66362615 0.0498569231,5.74571846 0.0498569231,5.83241077 C0.0498569231,7.01708769 0.763918462,8.03227231 1.78299538,8.48236462 L1.78299538,16.7025646 L0.495349231,16.7025646 C0.221826154,16.7025646 -3.53846154e-05,16.9244262 -3.53846154e-05,17.1983031 C-3.53846154e-05,17.4718262 0.221826154,17.6936877 0.495349231,17.6936877 L5.05182615,17.6936877 C5.06491846,17.6936877 5.07694923,17.6908569 5.08968769,17.6897954 L8.86522615,17.6897954 L8.87761077,17.6897954 L15.2928415,17.6897954 C15.30558,17.6908569 15.3176108,17.6936877 15.3310569,17.6936877 L19.88718,17.6936877 C20.1610569,17.6936877 20.3825646,17.4718262 20.3825646,17.1983031 C20.3825646,16.9244262 20.1610569,16.7025646 19.88718,16.7025646 L19.88718,16.7025646 Z" id="Fill-4" fill="#00B41A" mask="url(#mask-2)"></path>
        </g>
    </g>
</svg>