<?xml version="1.0" encoding="UTF-8"?>
<svg width="28px" height="24px" viewBox="0 0 28 24" version="1.1" xmlns="http://www.w3.org/2000/svg" xmlns:xlink="http://www.w3.org/1999/xlink">
    <!-- Generator: Sketch 61 (89581) - https://sketch.com -->
    <title>store-green-pdp-icon</title>
    <desc>Created with Sketch.</desc>
    <defs>
        <polygon id="path-1" points="0 0.0731282051 27.1767528 0.0731282051 27.1767528 23.5915836 0 23.5915836"></polygon>
    </defs>
    <g id="Page-1" stroke="none" stroke-width="1" fill="none" fill-rule="evenodd">
        <g id="Dismac-landing-categoria-2-Copy" transform="translate(-969.000000, -703.000000)">
            <g id="store-green-pdp-icon" transform="translate(969.000000, 703.000000)">
                <mask id="mask-2" fill="white">
                    <use xlink:href="#path-1"></use>
                </mask>
                <g id="Clip-5"></g>
                <path d="M14.4651836,12.8780656 L12.5449785,12.8780656 C11.3008554,12.8780656 10.2831938,13.8905374 10.2831938,15.1398503 L10.2831938,22.2710297 L6.74709128,22.2710297 C6.74284513,22.2710297 6.73954256,22.2700862 6.73576821,22.2700862 L3.69835282,22.2700862 L3.69835282,11.6344144 C3.77525538,11.6400759 3.85215795,11.6400759 3.92906051,11.6400759 C5.26093744,11.6400759 6.43853744,10.9630503 7.1320759,9.93406564 C7.82514256,10.9630503 9.00274256,11.6400759 10.3346195,11.6400759 C11.6660246,11.6400759 12.8384349,10.9630503 13.5371631,9.93406564 C14.2307015,10.9630503 15.4083015,11.6400759 16.7345169,11.6400759 C18.0659221,11.6400759 19.2383323,10.9630503 19.931399,9.93406564 C20.6249374,10.9630503 21.8025374,11.6400759 23.1344144,11.6400759 C23.2113169,11.6400759 23.2825579,11.6344144 23.3599323,11.6344144 L23.3599323,22.26584 L16.7269682,22.26584 L16.7269682,15.1398503 C16.7269682,13.8957272 15.7140246,12.8780656 14.4651836,12.8780656 L14.4651836,12.8780656 Z M15.4116041,22.26584 L15.4064144,22.26584 L11.6094092,22.26584 L11.6094092,15.1398503 C11.6094092,14.6222913 12.0274195,14.1986195 12.5501682,14.1986195 L14.4708451,14.1986195 C14.9879323,14.1986195 15.4116041,14.6171015 15.4116041,15.1398503 L15.4116041,22.26584 Z M1.43137846,8.22286564 L6.43334769,8.22286564 C6.22387077,9.41084513 5.17837333,10.3133887 3.92906051,10.3133887 C2.68021949,10.3190503 1.63991179,9.41084513 1.43137846,8.22286564 L1.43137846,8.22286564 Z M12.8327733,8.22286564 C12.6237682,9.41084513 11.5839323,10.3133887 10.3346195,10.3133887 C9.08530667,10.3133887 8.04547077,9.41084513 7.8308041,8.22286564 L12.8327733,8.22286564 Z M19.2326708,8.22286564 C19.0236656,9.41084513 17.9838297,10.3133887 16.7345169,10.3133887 C15.4852041,10.3133887 14.4453682,9.41084513 14.2363631,8.22286564 L19.2326708,8.22286564 Z M5.11232205,1.39929641 L21.9454913,1.39929641 L25.0767938,6.90750154 L1.98668103,6.90750154 L5.11232205,1.39929641 Z M23.1344144,10.3190503 C21.8851015,10.3190503 20.8447938,9.41650667 20.6357887,8.22852718 L25.6382297,8.22852718 C25.4235631,9.41084513 24.3832554,10.3190503 23.1344144,10.3190503 L23.1344144,10.3190503 Z M26.51624,22.2700862 L24.6804862,22.2700862 L24.6804862,11.3923836 C24.6804862,11.3645477 24.6804862,11.3428451 24.6748246,11.3206708 C26.0397272,10.7210195 26.996999,9.36177846 26.996999,7.77654769 C26.996999,7.66095795 26.9696349,7.55150154 26.9087733,7.45242462 L22.9032349,0.408527179 C22.7876451,0.20518359 22.5673169,0.0726092308 22.3304759,0.0726092308 L4.72733744,0.0726092308 C4.49049641,0.0726092308 4.27064,0.199522051 4.15505026,0.408527179 L0.154229744,7.45242462 C0.0995015385,7.55150154 0.0664758974,7.66095795 0.0664758974,7.77654769 C0.0664758974,9.35611692 1.01855795,10.7096964 2.37732718,11.3098195 L2.37732718,22.2700862 L0.660465641,22.2700862 C0.295768205,22.2700862 -4.71794872e-05,22.5659015 -4.71794872e-05,22.9310708 C-4.71794872e-05,23.2957682 0.295768205,23.5915836 0.660465641,23.5915836 L6.73576821,23.5915836 C6.75322462,23.5915836 6.76926564,23.5878092 6.78625026,23.5863938 L11.8203015,23.5863938 L11.8368144,23.5863938 L20.3904554,23.5863938 C20.40744,23.5878092 20.423481,23.5915836 20.4414092,23.5915836 L26.51624,23.5915836 C26.8814092,23.5915836 27.1767528,23.2957682 27.1767528,22.9310708 C27.1767528,22.5659015 26.8814092,22.2700862 26.51624,22.2700862 L26.51624,22.2700862 Z" id="Fill-4" fill="#00B41A" mask="url(#mask-2)"></path>
            </g>
        </g>
    </g>
</svg>