<?xml version="1.0" encoding="UTF-8"?>
<svg width="28px" height="24px" viewBox="0 0 28 24" version="1.1" xmlns="http://www.w3.org/2000/svg" xmlns:xlink="http://www.w3.org/1999/xlink">
    <!-- Generator: Sketch 61 (89581) - https://sketch.com -->
    <title>store-grey-pdp-icon</title>
    <desc>Created with Sketch.</desc>
    <defs>
        <polygon id="path-1" points="0.46462359 0.0731282051 27.6414236 0.0731282051 27.6414236 23.5915836 0.46462359 23.5915836"></polygon>
    </defs>
    <g id="Page-1" stroke="none" stroke-width="1" fill="none" fill-rule="evenodd">
        <g id="Dismac-landing-categoria-2-Copy" transform="translate(-1002.000000, -703.000000)">
            <g id="store-grey-pdp-icon" transform="translate(1002.000000, 703.000000)">
                <mask id="mask-2" fill="white">
                    <use xlink:href="#path-1"></use>
                </mask>
                <g id="Clip-2"></g>
                <path d="M14.9298544,12.8780656 L13.0091774,12.8780656 C11.7655262,12.8780656 10.7473928,13.8905374 10.7473928,15.1398503 L10.7473928,22.2710297 L7.21129026,22.2710297 C7.2075159,22.2710297 7.20421333,22.2700862 7.20043897,22.2700862 L4.16255179,22.2700862 L4.16255179,11.6344144 C4.23992615,11.6400759 4.31682872,11.6400759 4.39373128,11.6400759 C5.72560821,11.6400759 6.90320821,10.9630503 7.59674667,9.93406564 C8.28981333,10.9630503 9.46741333,11.6400759 10.7992903,11.6400759 C12.1306954,11.6400759 13.3031056,10.9630503 14.0018338,9.93406564 C14.6949005,10.9630503 15.8729723,11.6400759 17.1991877,11.6400759 C18.5305928,11.6400759 19.7025313,10.9630503 20.3960697,9.93406564 C21.0896082,10.9630503 22.2672082,11.6400759 23.5986133,11.6400759 C23.6759877,11.6400759 23.7472287,11.6344144 23.8246031,11.6344144 L23.8246031,22.26584 L17.1911672,22.26584 L17.1911672,15.1398503 C17.1911672,13.8957272 16.1786954,12.8780656 14.9298544,12.8780656 L14.9298544,12.8780656 Z M15.8762749,22.26584 L15.8706133,22.26584 L12.0736082,22.26584 L12.0736082,15.1398503 C12.0736082,14.6222913 12.4920903,14.1986195 13.014839,14.1986195 L14.9350441,14.1986195 C15.4526031,14.1986195 15.8762749,14.6171015 15.8762749,15.1398503 L15.8762749,22.26584 Z M1.89557744,8.22286564 L6.89754667,8.22286564 C6.68854154,9.41084513 5.6430441,10.3133887 4.39373128,10.3133887 C3.14489026,10.3190503 2.10458256,9.41084513 1.89557744,8.22286564 L1.89557744,8.22286564 Z M13.2974441,8.22286564 C13.088439,9.41084513 12.0481313,10.3133887 10.7992903,10.3133887 C9.54997744,10.3133887 8.51014154,9.41084513 8.29547487,8.22286564 L13.2974441,8.22286564 Z M19.6973415,8.22286564 C19.4883364,9.41084513 18.4480287,10.3133887 17.1991877,10.3133887 C15.9498749,10.3133887 14.910039,9.41084513 14.7005621,8.22286564 L19.6973415,8.22286564 Z M5.57699282,1.39929641 L22.4101621,1.39929641 L25.5414646,6.90750154 L2.45135179,6.90750154 L5.57699282,1.39929641 Z M23.5986133,10.3190503 C22.3497723,10.3190503 21.3094646,9.41650667 21.1004595,8.22852718 L26.1024287,8.22852718 C25.8877621,9.41084513 24.8479262,10.3190503 23.5986133,10.3190503 L23.5986133,10.3190503 Z M26.9809108,22.2700862 L25.1451569,22.2700862 L25.1451569,11.3923836 C25.1451569,11.3645477 25.1451569,11.3428451 25.1394954,11.3206708 C26.5043979,10.7210195 27.4616697,9.36177846 27.4616697,7.77654769 C27.4616697,7.66095795 27.4343056,7.55150154 27.3734441,7.45242462 L23.3674338,0.408527179 C23.2518441,0.20518359 23.0319877,0.0726092308 22.7951467,0.0726092308 L5.19153641,0.0726092308 C4.95516718,0.0726092308 4.73531077,0.199522051 4.61924923,0.408527179 L0.618900513,7.45242462 C0.563700513,7.55150154 0.530674872,7.66095795 0.530674872,7.77654769 C0.530674872,9.35611692 1.48322872,10.7096964 2.84199795,11.3098195 L2.84199795,22.2700862 L1.12513641,22.2700862 C0.759967179,22.2700862 0.46462359,22.5659015 0.46462359,22.9310708 C0.46462359,23.2957682 0.759967179,23.5915836 1.12513641,23.5915836 L7.20043897,23.5915836 C7.21742359,23.5915836 7.23393641,23.5878092 7.25092103,23.5863938 L12.2849723,23.5863938 L12.3014851,23.5863938 L20.8551262,23.5863938 C20.8721108,23.5878092 20.8881518,23.5915836 20.9056082,23.5915836 L26.9809108,23.5915836 C27.3456082,23.5915836 27.6414236,23.2957682 27.6414236,22.9310708 C27.6414236,22.5659015 27.3456082,22.2700862 26.9809108,22.2700862 L26.9809108,22.2700862 Z" id="Fill-1" fill="#777777" mask="url(#mask-2)"></path>
            </g>
        </g>
    </g>
</svg>