<?xml version="1.0" encoding="UTF-8"?>
<svg width="21px" height="18px" viewBox="0 0 21 18" version="1.1" xmlns="http://www.w3.org/2000/svg" xmlns:xlink="http://www.w3.org/1999/xlink">
    <!-- Generator: Sketch 61 (89581) - https://sketch.com -->
    <title>store-grey-category-icon</title>
    <desc>Created with Sketch.</desc>
    <defs>
        <polygon id="path-1" points="0.348467692 0.0548461538 20.7310677 0.0548461538 20.7310677 17.6936877 0.348467692 17.6936877"></polygon>
    </defs>
    <g id="Page-1" stroke="none" stroke-width="1" fill="none" fill-rule="evenodd">
        <g id="store-grey-category-icon">
            <mask id="mask-2" fill="white">
                <use xlink:href="#path-1"></use>
            </mask>
            <g id="Clip-2"></g>
            <path d="M11.1973908,9.65854923 L9.75688308,9.65854923 C8.82414462,9.65854923 8.06054462,10.4179031 8.06054462,11.3548877 L8.06054462,16.7032723 L5.40846769,16.7032723 C5.40563692,16.7032723 5.40316,16.7025646 5.40032923,16.7025646 L3.12191385,16.7025646 L3.12191385,8.72581077 C3.17994462,8.73005692 3.23762154,8.73005692 3.29529846,8.73005692 C4.29420615,8.73005692 5.17740615,8.22228769 5.69756,7.45054923 C6.21736,8.22228769 7.10056,8.73005692 8.09946769,8.73005692 C9.09802154,8.73005692 9.97732923,8.22228769 10.5013754,7.45054923 C11.0211754,8.22228769 11.9047292,8.73005692 12.8993908,8.73005692 C13.8979446,8.73005692 14.7768985,8.22228769 15.2970523,7.45054923 C15.8172062,8.22228769 16.7004062,8.73005692 17.69896,8.73005692 C17.7569908,8.73005692 17.8104215,8.72581077 17.8684523,8.72581077 L17.8684523,16.69938 L12.8933754,16.69938 L12.8933754,11.3548877 C12.8933754,10.4217954 12.1340215,9.65854923 11.1973908,9.65854923 L11.1973908,9.65854923 Z M11.9072062,16.69938 L11.90296,16.69938 L9.05520615,16.69938 L9.05520615,11.3548877 C9.05520615,10.9667185 9.36906769,10.6489646 9.76112923,10.6489646 L11.2012831,10.6489646 C11.5894523,10.6489646 11.9072062,10.9628262 11.9072062,11.3548877 L11.9072062,16.69938 Z M1.42168308,6.16714923 L5.17316,6.16714923 C5.01640615,7.05813385 4.23228308,7.73504154 3.29529846,7.73504154 C2.35866769,7.73928769 1.57843692,7.05813385 1.42168308,6.16714923 L1.42168308,6.16714923 Z M9.97308308,6.16714923 C9.81632923,7.05813385 9.03609846,7.73504154 8.09946769,7.73504154 C7.16248308,7.73504154 6.38260615,7.05813385 6.22160615,6.16714923 L9.97308308,6.16714923 Z M14.7730062,6.16714923 C14.6162523,7.05813385 13.8360215,7.73504154 12.8993908,7.73504154 C11.9624062,7.73504154 11.1825292,7.05813385 11.0254215,6.16714923 L14.7730062,6.16714923 Z M4.18274462,1.04947231 L16.8076215,1.04947231 L19.1560985,5.18062615 L1.83851385,5.18062615 L4.18274462,1.04947231 Z M17.69896,7.73928769 C16.7623292,7.73928769 15.9820985,7.06238 15.8253446,6.17139538 L19.5768215,6.17139538 C19.4158215,7.05813385 18.6359446,7.73928769 17.69896,7.73928769 L17.69896,7.73928769 Z M20.2356831,16.7025646 L18.8588677,16.7025646 L18.8588677,8.54428769 C18.8588677,8.52341077 18.8588677,8.50713385 18.8546215,8.49050308 C19.8782985,8.04076462 20.5962523,7.02133385 20.5962523,5.83241077 C20.5962523,5.74571846 20.5757292,5.66362615 20.5300831,5.58931846 L17.5255754,0.306395385 C17.4388831,0.153887692 17.2739908,0.0544569231 17.09636,0.0544569231 L3.89365231,0.0544569231 C3.71637538,0.0544569231 3.55148308,0.149641538 3.46443692,0.306395385 L0.464175385,5.58931846 C0.422775385,5.66362615 0.398006154,5.74571846 0.398006154,5.83241077 C0.398006154,7.01708769 1.11242154,8.03227231 2.13149846,8.48236462 L2.13149846,16.7025646 L0.843852308,16.7025646 C0.569975385,16.7025646 0.348467692,16.9244262 0.348467692,17.1983031 C0.348467692,17.4718262 0.569975385,17.6936877 0.843852308,17.6936877 L5.40032923,17.6936877 C5.41306769,17.6936877 5.42545231,17.6908569 5.43819077,17.6897954 L9.21372923,17.6897954 L9.22611385,17.6897954 L15.6413446,17.6897954 C15.6540831,17.6908569 15.6661138,17.6936877 15.6792062,17.6936877 L20.2356831,17.6936877 C20.5092062,17.6936877 20.7310677,17.4718262 20.7310677,17.1983031 C20.7310677,16.9244262 20.5092062,16.7025646 20.2356831,16.7025646 L20.2356831,16.7025646 Z" id="Fill-1" fill="#777777" mask="url(#mask-2)"></path>
        </g>
    </g>
</svg>